<?xml version="1.0" standalone="no"?>
<!DOCTYPE svg PUBLIC "-//W3C//DTD SVG 20010904//EN"
 "http://www.w3.org/TR/2001/REC-SVG-20010904/DTD/svg10.dtd">
<svg version="1.0" xmlns="http://www.w3.org/2000/svg"
 width="156.000000pt" height="49.000000pt" viewBox="0 0 156.000000 49.000000"
 preserveAspectRatio="xMidYMid meet">
<metadata>
Created by potrace 1.14, written by Peter Selinger 2001-2017
</metadata>
<g transform="translate(0.000000,49.000000) scale(0.100000,-0.100000)"
fill="#000000" stroke="none">
<path d="M50 204 l0 -154 250 0 251 0 -12 23 c-7 12 -44 54 -83 92 -97 96
-228 164 -355 184 l-51 8 0 -153z"/>
<path d="M925 271 c-41 -17 -60 -50 -60 -106 0 -43 5 -59 24 -79 48 -51 171
-61 171 -15 0 16 -3 18 -19 9 -40 -21 -100 -7 -128 29 -21 27 -16 98 8 122 19
19 29 21 80 15 46 -4 59 -3 59 8 0 23 -92 34 -135 17z"/>
<path d="M1358 273 l-28 -4 0 -110 c0 -101 1 -109 19 -109 16 0 20 8 23 46 l3
47 51 -47 c35 -31 61 -46 79 -46 25 0 22 4 -31 47 -51 42 -55 48 -39 57 53 31
72 80 40 106 -16 13 -76 20 -117 13z"/>
<path d="M620 160 c0 -103 1 -110 20 -110 17 0 19 8 22 86 l3 85 60 -85 c48
-68 65 -85 85 -86 l25 0 0 110 c0 97 -2 110 -17 110 -15 0 -18 -13 -20 -87
l-3 -87 -63 87 c-50 68 -68 87 -88 87 -24 0 -24 0 -24 -110z"/>
<path d="M1130 173 c-24 -54 -48 -104 -53 -110 -7 -10 -3 -13 15 -13 18 0 27
8 37 35 12 34 14 35 65 35 50 0 53 -2 69 -35 11 -24 23 -35 38 -35 16 0 19 3
11 13 -5 6 -29 56 -52 110 -36 81 -47 97 -65 97 -18 0 -29 -17 -65 -97z"/>
</g>
</svg>
